<svg width="32" height="32" viewBox="0 0 33 32" fill="none" xmlns="http://www.w3.org/2000/svg">
<path fill-rule="evenodd" clip-rule="evenodd" d="M4.005 0C2.9444 0.00237159 1.92785 0.424402 1.17742 1.17389C0.426996 1.92338 0.0036965 2.93941 0 4L0 28C0 30.2 1.802 32 4.005 32H28.037C30.24 32 32.042 30.2 32.042 28V4C32.042 1.8 30.24 0 28.037 0H4.005Z" fill="#0EA5E9"/>
<path fill-rule="evenodd" clip-rule="evenodd" d="M6.792 15.157L19.657 7.67801C19.932 7.51801 19.946 7.02501 19.637 6.84801C19.329 6.67001 18.744 6.33401 18.526 6.20501C18.3739 6.12111 18.2026 6.07811 18.0289 6.08021C17.8552 6.08232 17.685 6.12945 17.535 6.21701C17.381 6.30701 7.102 12.277 6.759 12.473C6.347 12.709 5.839 12.713 5.429 12.473L0 9.28701V11.995C1.321 12.773 4.607 14.705 5.403 15.16C5.878 15.43 6.333 15.424 6.792 15.157Z" fill="white"/>
<path fill-rule="evenodd" clip-rule="evenodd" d="M6.792 20.277L19.657 12.798C19.932 12.638 19.946 12.145 19.637 11.968C19.329 11.79 18.744 11.454 18.526 11.325C18.3739 11.2411 18.2026 11.1981 18.0289 11.2002C17.8552 11.2023 17.685 11.2494 17.535 11.337C17.381 11.427 7.102 17.397 6.759 17.593C6.347 17.829 5.839 17.833 5.429 17.593L0 14.407V17.115C1.321 17.893 4.607 19.825 5.403 20.28C5.878 20.55 6.333 20.544 6.792 20.277Z" fill="white"/>
<path fill-rule="evenodd" clip-rule="evenodd" d="M6.792 25.717L19.657 18.238C19.932 18.078 19.946 17.585 19.637 17.408C19.329 17.23 18.744 16.894 18.526 16.765C18.3739 16.6811 18.2026 16.6381 18.0289 16.6402C17.8552 16.6423 17.685 16.6894 17.535 16.777C17.381 16.867 7.102 22.837 6.759 23.033C6.347 23.269 5.839 23.273 5.429 23.033L0 19.847V22.555C1.321 23.333 4.607 25.265 5.403 25.72C5.878 25.99 6.333 25.984 6.792 25.717Z" fill="white"/>
</svg>
